<svg width="18" height="16" viewBox="0 0 18 16" fill="none" xmlns="http://www.w3.org/2000/svg">
<path d="M17.2188 2L4.5 2L4.21875 0.625C4.15625 0.28125 3.84375 0 3.5 0L0.375 0C0.15625 0 0 0.1875 0 0.375L0 1.125C0 1.34375 0.15625 1.5 0.375 1.5H2.875L5.03125 12.625C4.6875 13 4.5 13.4688 4.5 14C4.5 15.125 5.375 16 6.5 16C7.59375 16 8.5 15.125 8.5 14C8.5 13.7188 8.375 13.2812 8.21875 13H12.75C12.5938 13.2812 12.5 13.7188 12.5 14C12.5 15.125 13.375 16 14.5 16C15.5938 16 16.5 15.125 16.5 14C16.5 13.4375 16.25 12.9375 15.875 12.5625L15.9063 12.4375C16 11.9687 15.6563 11.5 15.1563 11.5L6.34375 11.5L6.0625 10L15.8125 10C16.1875 10 16.4688 9.78125 16.5625 9.4375L17.9688 2.9375C18.0625 2.46875 17.7188 2 17.2188 2ZM6.5 14.75C6.0625 14.75 5.75 14.4375 5.75 14C5.75 13.5938 6.0625 13.25 6.5 13.25C6.90625 13.25 7.25 13.5938 7.25 14C7.25 14.4375 6.90625 14.75 6.5 14.75ZM14.5 14.75C14.0625 14.75 13.75 14.4375 13.75 14C13.75 13.5938 14.0625 13.25 14.5 13.25C14.9063 13.25 15.25 13.5937 15.25 14C15.25 14.4375 14.9063 14.75 14.5 14.75ZM15.2188 8.5L5.75 8.5L4.78125 3.5L16.3125 3.5L15.2188 8.5ZM12.3438 6.65625C12.5938 6.40625 12.4063 6 12.0938 6H11.25V4.375C11.25 4.1875 11.0625 4 10.875 4H10.125C9.90625 4 9.75 4.1875 9.75 4.375V6H8.875C8.5625 6 8.375 6.40625 8.625 6.65625L10.2188 8.25C10.375 8.40625 10.5938 8.40625 10.75 8.25L12.3438 6.65625Z" fill="white"/>
</svg>
