<svg width="13" height="13" viewBox="0 0 13 13" fill="none" xmlns="http://www.w3.org/2000/svg">
<path d="M8.33594 6.5L12.5547 2.32031C12.7891 2.08594 12.7891 1.65625 12.5547 1.42188L11.5781 0.445312C11.3438 0.210938 10.9141 0.210938 10.6797 0.445312L6.5 4.66406L2.28125 0.445312C2.04688 0.210938 1.61719 0.210938 1.38281 0.445312L0.40625 1.42188C0.171875 1.65625 0.171875 2.08594 0.40625 2.32031L4.625 6.5L0.40625 10.7188C0.171875 10.9531 0.171875 11.3828 0.40625 11.6172L1.38281 12.5938C1.61719 12.8281 2.04688 12.8281 2.28125 12.5938L6.5 8.375L10.6797 12.5938C10.9141 12.8281 11.3438 12.8281 11.5781 12.5938L12.5547 11.6172C12.7891 11.3828 12.7891 10.9531 12.5547 10.7188L8.33594 6.5Z" fill="white"/>
</svg>
