<svg width="154" height="18" viewBox="0 0 154 18" fill="none" xmlns="http://www.w3.org/2000/svg">
<path d="M13.6016 2.0625L12.0078 0.46875C11.7578 0.21875 11.2891 0 10.9453 0H5.57031C4.72656 0 4.07031 0.6875 4.07031 1.5V3H1.57031C0.726562 3 0.0703125 3.6875 0.0703125 4.5V14.5C0.0703125 15.3438 0.726562 16 1.57031 16H8.57031C9.38281 16 10.0703 15.3438 10.0703 14.5V13H12.5703C13.3828 13 14.0703 12.3438 14.0703 11.5V3.125C14.0703 2.78125 13.8516 2.3125 13.6016 2.0625ZM8.38281 14.5H1.75781C1.63281 14.5 1.57031 14.4375 1.57031 14.3125V4.6875C1.57031 4.59375 1.63281 4.5 1.75781 4.5H4.07031V11.5C4.07031 12.3438 4.72656 13 5.57031 13H8.57031V14.3125C8.57031 14.4375 8.47656 14.5 8.38281 14.5ZM12.3828 11.5H5.75781C5.63281 11.5 5.57031 11.4375 5.57031 11.3125V1.6875C5.57031 1.59375 5.63281 1.5 5.75781 1.5H9.07031V4.25C9.07031 4.6875 9.38281 5 9.82031 5H12.5703V11.3125C12.5703 11.4375 12.4766 11.5 12.3828 11.5ZM12.5703 3.5H10.5703V1.5H10.8516C10.9141 1.5 10.9453 1.53125 10.9766 1.5625L12.5078 3.09375C12.5391 3.125 12.5703 3.15625 12.5703 3.21875V3.5ZM25.2896 14.192C24.1482 14.192 23.1136 13.9467 22.1856 13.456C21.2682 12.9547 20.5429 12.2667 20.0096 11.392C19.4869 10.5067 19.2256 9.50933 19.2256 8.4C19.2256 7.29067 19.4869 6.29867 20.0096 5.424C20.5429 4.53867 21.2682 3.85067 22.1856 3.36C23.1136 2.85867 24.1536 2.608 25.3056 2.608C26.2762 2.608 27.1509 2.77867 27.9296 3.12C28.7189 3.46133 29.3802 3.952 29.9136 4.592L28.2496 6.128C27.4922 5.25333 26.5536 4.816 25.4336 4.816C24.7402 4.816 24.1216 4.97067 23.5776 5.28C23.0336 5.57867 22.6069 6 22.2976 6.544C21.9989 7.088 21.8496 7.70667 21.8496 8.4C21.8496 9.09333 21.9989 9.712 22.2976 10.256C22.6069 10.8 23.0336 11.2267 23.5776 11.536C24.1216 11.8347 24.7402 11.984 25.4336 11.984C26.5536 11.984 27.4922 11.5413 28.2496 10.656L29.9136 12.192C29.3802 12.8427 28.7189 13.3387 27.9296 13.68C27.1402 14.0213 26.2602 14.192 25.2896 14.192ZM35.2029 10.736H33.9069V14H31.4109V5.392H33.9069V8.736H35.2509L37.5869 5.392H40.2429L37.2349 9.52L40.4509 14H37.5069L35.2029 10.736ZM45.4429 14.128C44.5363 14.128 43.7203 13.9413 42.9949 13.568C42.2803 13.184 41.7203 12.656 41.3149 11.984C40.9096 11.312 40.7069 10.5493 40.7069 9.696C40.7069 8.84267 40.9096 8.08 41.3149 7.408C41.7203 6.736 42.2803 6.21333 42.9949 5.84C43.7203 5.456 44.5363 5.264 45.4429 5.264C46.3496 5.264 47.1603 5.456 47.8749 5.84C48.5896 6.21333 49.1496 6.736 49.5549 7.408C49.9603 8.08 50.1629 8.84267 50.1629 9.696C50.1629 10.5493 49.9603 11.312 49.5549 11.984C49.1496 12.656 48.5896 13.184 47.8749 13.568C47.1603 13.9413 46.3496 14.128 45.4429 14.128ZM45.4429 12.08C46.0829 12.08 46.6056 11.8667 47.0109 11.44C47.4269 11.0027 47.6349 10.4213 47.6349 9.696C47.6349 8.97067 47.4269 8.39467 47.0109 7.968C46.6056 7.53067 46.0829 7.312 45.4429 7.312C44.8029 7.312 44.2749 7.53067 43.8589 7.968C43.4429 8.39467 43.2349 8.97067 43.2349 9.696C43.2349 10.4213 43.4429 11.0027 43.8589 11.44C44.2749 11.8667 44.8029 12.08 45.4429 12.08ZM60.4397 5.392V14H57.9437V7.44H54.3597V14H51.8797V5.392H60.4397ZM62.8328 5.392H65.3128V10.512L69.5048 5.392H71.7928V14H69.3128V8.88L65.1368 14H62.8328V5.392ZM79.2642 5.264C80.0642 5.264 80.7895 5.45067 81.4402 5.824C82.1015 6.18667 82.6189 6.704 82.9922 7.376C83.3655 8.03733 83.5522 8.81067 83.5522 9.696C83.5522 10.5813 83.3655 11.36 82.9922 12.032C82.6189 12.6933 82.1015 13.2107 81.4402 13.584C80.7895 13.9467 80.0642 14.128 79.2642 14.128C78.1655 14.128 77.3015 13.7813 76.6722 13.088V17.104H74.1762V5.392H76.5602V6.384C77.1789 5.63733 78.0802 5.264 79.2642 5.264ZM78.8322 12.08C79.4722 12.08 79.9949 11.8667 80.4002 11.44C80.8162 11.0027 81.0242 10.4213 81.0242 9.696C81.0242 8.97067 80.8162 8.39467 80.4002 7.968C79.9949 7.53067 79.4722 7.312 78.8322 7.312C78.1922 7.312 77.6642 7.53067 77.2482 7.968C76.8429 8.39467 76.6402 8.97067 76.6402 9.696C76.6402 10.4213 76.8429 11.0027 77.2482 11.44C77.6642 11.8667 78.1922 12.08 78.8322 12.08ZM89.3336 14.128C88.4269 14.128 87.6109 13.9413 86.8856 13.568C86.1709 13.184 85.6109 12.656 85.2056 11.984C84.8002 11.312 84.5976 10.5493 84.5976 9.696C84.5976 8.84267 84.8002 8.08 85.2056 7.408C85.6109 6.736 86.1709 6.21333 86.8856 5.84C87.6109 5.456 88.4269 5.264 89.3336 5.264C90.2402 5.264 91.0509 5.456 91.7656 5.84C92.4802 6.21333 93.0402 6.736 93.4456 7.408C93.8509 8.08 94.0536 8.84267 94.0536 9.696C94.0536 10.5493 93.8509 11.312 93.4456 11.984C93.0402 12.656 92.4802 13.184 91.7656 13.568C91.0509 13.9413 90.2402 14.128 89.3336 14.128ZM89.3336 12.08C89.9736 12.08 90.4962 11.8667 90.9016 11.44C91.3176 11.0027 91.5256 10.4213 91.5256 9.696C91.5256 8.97067 91.3176 8.39467 90.9016 7.968C90.4962 7.53067 89.9736 7.312 89.3336 7.312C88.6936 7.312 88.1656 7.53067 87.7496 7.968C87.3336 8.39467 87.1256 8.97067 87.1256 9.696C87.1256 10.4213 87.3336 11.0027 87.7496 11.44C88.1656 11.8667 88.6936 12.08 89.3336 12.08ZM102.346 9.504C103.36 9.84533 103.866 10.528 103.866 11.552C103.866 12.3307 103.573 12.9333 102.986 13.36C102.4 13.7867 101.525 14 100.362 14H95.7703V5.392H100.17C101.248 5.392 102.09 5.58933 102.698 5.984C103.306 6.368 103.61 6.912 103.61 7.616C103.61 8.04267 103.498 8.42133 103.274 8.752C103.061 9.072 102.752 9.32267 102.346 9.504ZM98.0583 8.928H99.9463C100.821 8.928 101.258 8.61867 101.258 8C101.258 7.392 100.821 7.088 99.9463 7.088H98.0583V8.928ZM100.154 12.304C101.072 12.304 101.53 11.9893 101.53 11.36C101.53 11.0293 101.424 10.7893 101.21 10.64C100.997 10.48 100.661 10.4 100.202 10.4H98.0583V12.304H100.154ZM109.067 5.264C110.401 5.264 111.425 5.584 112.139 6.224C112.854 6.85333 113.211 7.808 113.211 9.088V14H110.875V12.928C110.406 13.728 109.531 14.128 108.251 14.128C107.59 14.128 107.014 14.016 106.523 13.792C106.043 13.568 105.675 13.2587 105.419 12.864C105.163 12.4693 105.035 12.0213 105.035 11.52C105.035 10.72 105.334 10.0907 105.931 9.632C106.539 9.17333 107.473 8.944 108.731 8.944H110.715C110.715 8.4 110.55 7.984 110.219 7.696C109.889 7.39733 109.393 7.248 108.731 7.248C108.273 7.248 107.819 7.32267 107.371 7.472C106.934 7.61067 106.561 7.80267 106.251 8.048L105.355 6.304C105.825 5.97333 106.385 5.71733 107.035 5.536C107.697 5.35467 108.374 5.264 109.067 5.264ZM108.875 12.448C109.302 12.448 109.681 12.352 110.011 12.16C110.342 11.9573 110.577 11.664 110.715 11.28V10.4H109.003C107.979 10.4 107.467 10.736 107.467 11.408C107.467 11.728 107.59 11.984 107.835 12.176C108.091 12.3573 108.438 12.448 108.875 12.448ZM122.612 7.44H119.7V14H117.22V7.44H114.308V5.392H122.612V7.44ZM128.598 8.144C129.718 8.15467 130.577 8.41067 131.174 8.912C131.772 9.40267 132.07 10.1013 132.07 11.008C132.07 11.9573 131.734 12.6987 131.062 13.232C130.401 13.7547 129.468 14.016 128.262 14.016L123.942 14V5.392H126.422V8.144H128.598ZM128.038 12.24C128.518 12.2507 128.886 12.1493 129.142 11.936C129.398 11.7227 129.526 11.4027 129.526 10.976C129.526 10.56 129.398 10.256 129.142 10.064C128.897 9.872 128.529 9.77067 128.038 9.76L126.422 9.744V12.24H128.038ZM138.289 2.8H140.881V14H138.289V2.8ZM148.387 2.8C149.379 2.8 150.238 2.96533 150.963 3.296C151.699 3.62667 152.264 4.096 152.659 4.704C153.054 5.312 153.251 6.032 153.251 6.864C153.251 7.68533 153.054 8.40533 152.659 9.024C152.264 9.632 151.699 10.1013 150.963 10.432C150.238 10.752 149.379 10.912 148.387 10.912H146.131V14H143.539V2.8H148.387ZM148.243 8.8C149.022 8.8 149.614 8.63467 150.019 8.304C150.424 7.96267 150.627 7.48267 150.627 6.864C150.627 6.23467 150.424 5.75467 150.019 5.424C149.614 5.08267 149.022 4.912 148.243 4.912H146.131V8.8H148.243Z" fill="url(#paint0_linear)"/>
<defs>
<linearGradient id="paint0_linear" x1="-38.2" y1="-4.00001" x2="180.634" y2="51.7168" gradientUnits="userSpaceOnUse">
<stop stop-color="#355CFF"/>
<stop offset="1" stop-color="#A116E7"/>
</linearGradient>
</defs>
</svg>
