<svg width="12" height="14" viewBox="0 0 12 14" fill="none" xmlns="http://www.w3.org/2000/svg">
<path d="M10.875 6.28125C11.0313 6.125 11.0313 5.875 10.875 5.75L10.25 5.125C10.125 4.96875 9.875 4.96875 9.71875 5.125L6.78125 8.15625L6.78125 0.375C6.78125 0.1875 6.625 0 6.40625 0H5.53125C5.34375 0 5.15625 0.1875 5.15625 0.375L5.15625 8.15625L2.25 5.125C2.09375 4.96875 1.84375 4.96875 1.71875 5.125L1.09375 5.75C0.9375 5.875 0.9375 6.125 1.09375 6.28125L5.71875 10.9062C5.875 11.0625 6.09375 11.0625 6.25 10.9062L10.875 6.28125ZM11.625 12.375H0.375C0.15625 12.375 0 12.5625 0 12.75L0 13.625C0 13.8438 0.15625 14 0.375 14H11.625C11.8125 14 12 13.8438 12 13.625V12.75C12 12.5625 11.8125 12.375 11.625 12.375Z" fill="white"/>
</svg>
