<svg width="26" height="19" viewBox="0 0 26 19" fill="none" xmlns="http://www.w3.org/2000/svg">
<path d="M16.125 8.25C15.4219 8.25 14.875 8.83594 14.875 9.5C14.875 10.2031 15.4219 10.75 16.125 10.75C16.7891 10.75 17.375 10.2031 17.375 9.5C17.375 8.83594 16.7891 8.25 16.125 8.25ZM25.4219 12.7422L24.3672 5.67187C24.0547 3.64062 22.5703 2.03906 20.6172 1.60937C18.5469 1.14062 15.1094 0.75 13 0.75C10.8516 0.75 7.41406 1.14062 5.34375 1.60937C3.39063 2.03906 1.90625 3.64062 1.59375 5.67188L0.539063 12.7422C0.109375 15.6328 2.29688 18.25 5.22656 18.25C6.86719 18.25 8.74219 17.0781 9.44531 15.6328L9.99219 14.5L15.9688 14.5L16.5156 15.6328C17.2188 17.0781 19.0938 18.25 20.7344 18.25C23.6641 18.25 25.8516 15.6328 25.4219 12.7422ZM22.8828 15.3984C22.4141 15.9453 21.4766 16.4141 20.7344 16.4141C20.7344 16.4141 20.7344 16.4141 20.7344 16.375C19.6406 16.375 18.6641 15.7891 18.1953 14.7734L17.6484 13.6797L17.1406 12.625H8.82031L8.3125 13.6797L7.76563 14.7734C7.29688 15.7891 6.32031 16.375 5.22656 16.375H5.1875C4.48438 16.375 3.54688 15.9453 3.07813 15.3984C2.6875 14.9297 2.375 14.0703 2.375 13.4844C2.375 13.3281 2.375 13.1328 2.375 13.0156L3.46875 5.94531C3.66406 4.69531 4.5625 3.71875 5.73438 3.44531C7.72656 3.01562 10.9688 2.625 13 2.625C14.9922 2.625 18.2344 3.01562 20.2266 3.44531C21.3984 3.71875 22.2969 4.69531 22.4922 5.94531L23.5859 13.0156C23.5859 13.1328 23.5859 13.3281 23.5859 13.4844C23.5859 14.0703 23.2734 14.9297 22.8828 15.3984ZM19.875 5.75C19.1719 5.75 18.625 6.33594 18.625 7C18.625 7.70312 19.1719 8.25 19.875 8.25C20.5391 8.25 21.125 7.70312 21.125 7C21.125 6.33594 20.5391 5.75 19.875 5.75ZM10.8125 7.3125H8.9375V5.4375C8.9375 5.28125 8.78125 5.125 8.625 5.125L7.375 5.125C7.17969 5.125 7.0625 5.28125 7.0625 5.4375V7.3125H5.1875C4.99219 7.3125 4.875 7.46875 4.875 7.625L4.875 8.875C4.875 9.07031 4.99219 9.1875 5.1875 9.1875H7.0625V11.0625C7.0625 11.2578 7.17969 11.375 7.375 11.375L8.625 11.375C8.78125 11.375 8.9375 11.2578 8.9375 11.0625V9.1875H10.8125C10.9688 9.1875 11.125 9.07031 11.125 8.875V7.625C11.125 7.46875 10.9688 7.3125 10.8125 7.3125Z" fill="url(#paint0_linear)"/>
<defs>
<linearGradient id="paint0_linear" x1="1.75" y1="-3.00001" x2="24.4918" y2="-2.43456" gradientUnits="userSpaceOnUse">
<stop stop-color="#355CFF"/>
<stop offset="1" stop-color="#A116E7"/>
</linearGradient>
</defs>
</svg>
