<svg width="32" height="16" viewBox="0 0 32 16" fill="none" xmlns="http://www.w3.org/2000/svg">
<rect width="32" height="16" rx="5" fill="url(#paint0_linear)"/>
<path d="M19.566 9.995C19.566 10.7057 19.306 11.3167 18.786 11.828C18.266 12.3307 17.5163 12.6427 16.537 12.764V14.22H15.237V12.803C14.5957 12.7683 13.9847 12.6557 13.404 12.465C12.8233 12.2743 12.3553 12.0403 12 11.763L12.715 10.177C13.0443 10.4197 13.43 10.6233 13.872 10.788C14.314 10.9527 14.769 11.0567 15.237 11.1V8.929C14.6217 8.78167 14.1017 8.617 13.677 8.435C13.2523 8.253 12.897 7.98867 12.611 7.642C12.325 7.28667 12.182 6.81867 12.182 6.238C12.182 5.51867 12.442 4.90333 12.962 4.392C13.4907 3.872 14.249 3.55567 15.237 3.443V2H16.537V3.417C17.603 3.50367 18.4827 3.768 19.176 4.21L18.526 5.809C17.876 5.43633 17.213 5.211 16.537 5.133V7.343C17.1437 7.48167 17.655 7.642 18.071 7.824C18.4957 7.99733 18.851 8.26167 19.137 8.617C19.423 8.96367 19.566 9.423 19.566 9.995ZM14.275 6.134C14.275 6.35067 14.3573 6.52833 14.522 6.667C14.6867 6.80567 14.925 6.92267 15.237 7.018V5.172C14.9077 5.25 14.665 5.37567 14.509 5.549C14.353 5.71367 14.275 5.90867 14.275 6.134ZM16.537 11.048C16.849 10.9787 17.083 10.866 17.239 10.71C17.395 10.554 17.473 10.3677 17.473 10.151C17.473 9.93433 17.3907 9.75667 17.226 9.618C17.07 9.47933 16.8403 9.358 16.537 9.254V11.048Z" fill="white"/>
<defs>
<linearGradient id="paint0_linear" x1="-7.5" y1="-7.99999" x2="28.6937" y2="7.301" gradientUnits="userSpaceOnUse">
<stop stop-color="#355CFF"/>
<stop offset="1" stop-color="#A116E7"/>
</linearGradient>
</defs>
</svg>
