<svg width="24" height="24" viewBox="0 0 24 24" fill="none" xmlns="http://www.w3.org/2000/svg">
<path d="M23.625 12C23.625 5.625 18.375 0.375 12 0.375C5.57812 0.375 0.375 5.625 0.375 12C0.375 18.4219 5.57812 23.625 12 23.625C18.375 23.625 23.625 18.4219 23.625 12ZM12 14.3438C13.1719 14.3438 14.1562 15.3281 14.1562 16.5C14.1562 17.7188 13.1719 18.6562 12 18.6562C10.7812 18.6562 9.84375 17.7188 9.84375 16.5C9.84375 15.3281 10.7812 14.3438 12 14.3438ZM9.9375 6.60938C9.89062 6.28125 10.1719 6 10.5 6H13.4531C13.7812 6 14.0625 6.28125 14.0156 6.60938L13.6875 12.9844C13.6406 13.3125 13.4062 13.5 13.125 13.5H10.8281C10.5469 13.5 10.3125 13.3125 10.2656 12.9844L9.9375 6.60938Z" fill="#F12020"/>
</svg>
