<svg width="23" height="15" viewBox="0 0 23 15" fill="none" xmlns="http://www.w3.org/2000/svg">
<path d="M21.5625 0L4.375 0C3.55469 0 2.85156 0.546875 2.57813 1.25H0.9375C0.390625 1.25 0 1.67969 0 2.1875L0 12.8125C0 14.0234 0.976563 15 2.1875 15L21.5625 15C22.0703 15 22.5 14.6094 22.5 14.0625L22.5 0.9375C22.5 0.429687 22.0703 0 21.5625 0ZM1.875 12.8125L1.875 3.125H2.5L2.5 12.8125C2.5 13.0078 2.34375 13.125 2.1875 13.125C1.99219 13.125 1.875 13.0078 1.875 12.8125ZM20.625 13.125L4.33594 13.125C4.33594 13.0469 4.375 12.9297 4.375 12.8125L4.375 1.875L20.625 1.875L20.625 13.125ZM6.71875 8.4375L12.0313 8.4375C12.2656 8.4375 12.5 8.24219 12.5 7.96875V4.21875C12.5 3.98437 12.2656 3.75 12.0313 3.75L6.71875 3.75C6.44531 3.75 6.25 3.98438 6.25 4.21875L6.25 7.96875C6.25 8.24219 6.44531 8.4375 6.71875 8.4375ZM7.8125 5.3125H10.9375V6.875H7.8125L7.8125 5.3125ZM6.25 10.7812C6.25 11.0547 6.44531 11.25 6.71875 11.25H12.0313C12.2656 11.25 12.5 11.0547 12.5 10.7812V9.84375C12.5 9.60937 12.2656 9.375 12.0313 9.375L6.71875 9.375C6.44531 9.375 6.25 9.60938 6.25 9.84375V10.7812ZM13.75 10.7812C13.75 11.0547 13.9453 11.25 14.2188 11.25L18.2813 11.25C18.5156 11.25 18.75 11.0547 18.75 10.7812V9.84375C18.75 9.60937 18.5156 9.375 18.2812 9.375H14.2188C13.9453 9.375 13.75 9.60937 13.75 9.84375V10.7812ZM13.75 5.15625C13.75 5.42969 13.9453 5.625 14.2188 5.625H18.2812C18.5156 5.625 18.75 5.42969 18.75 5.15625V4.21875C18.75 3.98437 18.5156 3.75 18.2812 3.75H14.2188C13.9453 3.75 13.75 3.98437 13.75 4.21875V5.15625ZM13.75 7.96875C13.75 8.24219 13.9453 8.4375 14.2188 8.4375H18.2812C18.5156 8.4375 18.75 8.24219 18.75 7.96875V7.03125C18.75 6.79687 18.5156 6.5625 18.2812 6.5625H14.2188C13.9453 6.5625 13.75 6.79687 13.75 7.03125V7.96875Z" fill="url(#paint0_linear)"/>
<defs>
<linearGradient id="paint0_linear" x1="1.15" y1="-5.00001" x2="22.0744" y2="-4.52137" gradientUnits="userSpaceOnUse">
<stop stop-color="#355CFF"/>
<stop offset="1" stop-color="#A116E7"/>
</linearGradient>
</defs>
</svg>
