<svg width="22" height="24" viewBox="0 0 22 24" fill="none" xmlns="http://www.w3.org/2000/svg">
<path d="M19.25 10.5H18.125V7.125C18.125 3.23438 14.8906 0 11 0C7.0625 0 3.875 3.23438 3.875 7.125V10.5H2.75C1.48438 10.5 0.5 11.5312 0.5 12.75V21.75C0.5 23.0156 1.48438 24 2.75 24H19.25C20.4688 24 21.5 23.0156 21.5 21.75V12.75C21.5 11.5312 20.4688 10.5 19.25 10.5ZM12.875 18.375C12.875 19.4531 12.0312 20.25 11 20.25C9.92188 20.25 9.125 19.4531 9.125 18.375V16.125C9.125 15.0938 9.92188 14.25 11 14.25C12.0312 14.25 12.875 15.0938 12.875 16.125V18.375ZM14.375 10.5H7.625V7.125C7.625 5.29688 9.125 3.75 11 3.75C12.8281 3.75 14.375 5.29688 14.375 7.125V10.5Z" fill="#CCCCCC"/>
</svg>
