<svg width="24" height="19" viewBox="0 0 24 19" fill="none" xmlns="http://www.w3.org/2000/svg">
<path d="M21.7813 14.6172C22.8359 13.5625 23.5 12.2344 23.5 10.75C23.5 7.625 20.4922 5.04687 16.5859 4.61719C15.375 2.35156 12.4844 0.75 9.125 0.75C4.63281 0.75 1 3.5625 1 7C1 8.44531 1.625 9.77344 2.71875 10.8672C2.09375 12.0391 1.23438 12.9766 1.23438 13.0156C1 13.25 0.921875 13.6406 1.03906 13.9922C1.19531 14.3047 1.50781 14.5391 1.89844 14.5391C3.96875 14.5391 5.64844 13.7188 6.78125 13.0156C7.13281 13.0938 7.52344 13.1328 7.875 13.2109C9.125 15.4375 11.9766 17 15.375 17C16.1562 17 16.9375 16.9219 17.6797 16.7656C18.8125 17.4687 20.4922 18.25 22.6016 18.25C22.9531 18.25 23.2656 18.0547 23.4219 17.7031C23.5391 17.3906 23.5 17 23.2266 16.7266C23.2266 16.7266 22.3672 15.7891 21.7813 14.6172ZM6.42969 10.9844L5.76563 11.4141C5.21875 11.8047 4.63281 12.0781 4.08594 12.2734C4.16406 12.0781 4.28125 11.8828 4.39844 11.6875L4.98438 10.4766L4.00781 9.5C3.5 8.99219 2.875 8.13281 2.875 7C2.875 4.65625 5.72656 2.625 9.125 2.625C12.4844 2.625 15.375 4.65625 15.375 7C15.375 9.38281 12.4844 11.375 9.125 11.375C8.46094 11.375 7.83594 11.3359 7.21094 11.1797L6.42969 10.9844ZM20.4531 13.25L19.4766 14.2266L20.1016 15.4375C20.1797 15.6328 20.2969 15.8281 20.4141 16.0234C19.8281 15.8281 19.2813 15.5156 18.7344 15.1641L18.0313 14.7344L17.2891 14.9297C16.6641 15.0859 16 15.125 15.375 15.125C13.2656 15.125 11.3516 14.3438 10.2188 13.2109C14.2031 12.7812 17.25 10.1641 17.25 7C17.25 6.88281 17.2109 6.76562 17.2109 6.60937C19.7109 7.19531 21.625 8.83594 21.625 10.75C21.625 11.8828 20.9609 12.7422 20.4531 13.25Z" fill="url(#paint0_linear)"/>
<defs>
<linearGradient id="paint0_linear" x1="2.15" y1="-3.00001" x2="23.0744" y2="-2.52137" gradientUnits="userSpaceOnUse">
<stop stop-color="#355CFF"/>
<stop offset="1" stop-color="#A116E7"/>
</linearGradient>
</defs>
</svg>
