<svg width="5" height="17" viewBox="0 0 5 17" fill="none" xmlns="http://www.w3.org/2000/svg">
<path d="M2.5 6.625C1.44531 6.625 0.625 7.48438 0.625 8.5C0.625 9.55469 1.44531 10.375 2.5 10.375C3.51562 10.375 4.375 9.55469 4.375 8.5C4.375 7.48438 3.51562 6.625 2.5 6.625ZM0.625 2.5625C0.625 3.61719 1.44531 4.4375 2.5 4.4375C3.51562 4.4375 4.375 3.61719 4.375 2.5625C4.375 1.54688 3.51562 0.6875 2.5 0.6875C1.44531 0.6875 0.625 1.54688 0.625 2.5625ZM0.625 14.4375C0.625 15.4922 1.44531 16.3125 2.5 16.3125C3.51562 16.3125 4.375 15.4922 4.375 14.4375C4.375 13.4219 3.51562 12.5625 2.5 12.5625C1.44531 12.5625 0.625 13.4219 0.625 14.4375Z" fill="url(#paint0_linear)"/>
<defs>
<linearGradient id="paint0_linear" x1="0.25" y1="-4.00001" x2="4.80105" y2="-3.97738" gradientUnits="userSpaceOnUse">
<stop stop-color="#355CFF"/>
<stop offset="1" stop-color="#A116E7"/>
</linearGradient>
</defs>
</svg>
