<?xml version="1.0" encoding="utf-8"?>
<!-- Generator: Adobe Illustrator 24.1.3, SVG Export Plug-In . SVG Version: 6.00 Build 0)  -->
<svg version="1.1" id="Слой_1" xmlns="http://www.w3.org/2000/svg" xmlns:xlink="http://www.w3.org/1999/xlink" x="0px" y="0px"
	 viewBox="0 0 311.16 311.16" style="enable-background:new 0 0 311.16 311.16;" xml:space="preserve">
<style type="text/css">
	.st0{fill:url(#SVGID_1_);}
	.st1{fill:url(#SVGID_2_);}
	.st2{fill:url(#SVGID_3_);}
	.st3{fill:url(#SVGID_4_);}
	.st4{fill:url(#SVGID_5_);}
	.st5{fill:url(#SVGID_6_);}
	.st6{fill:url(#SVGID_7_);}
	.st7{fill:url(#SVGID_8_);}
	.st8{fill:url(#SVGID_9_);}
	.st9{fill:url(#SVGID_10_);}
</style>
<g>
	<g>
		
			<linearGradient id="SVGID_1_" gradientUnits="userSpaceOnUse" x1="262.3192" y1="260.2259" x2="302.9715" y2="260.2259" gradientTransform="matrix(-1 0 0 -1 438.226 415.8061)">
			<stop  offset="0" style="stop-color:#DB3EF7"/>
			<stop  offset="1" style="stop-color:#823298"/>
		</linearGradient>
		<path class="st0" d="M155.58,175.91c-11.21,0-20.33-9.12-20.33-20.33s9.12-20.33,20.33-20.33s20.33,9.12,20.33,20.33
			S166.79,175.91,155.58,175.91z M155.58,138.25c-9.55,0-17.33,7.77-17.33,17.33s7.77,17.33,17.33,17.33s17.33-7.77,17.33-17.33
			S165.13,138.25,155.58,138.25z"/>
	</g>
	<g>
		
			<linearGradient id="SVGID_2_" gradientUnits="userSpaceOnUse" x1="242.952" y1="260.2257" x2="322.3387" y2="260.2257" gradientTransform="matrix(-1 0 0 -1 438.226 415.8061)">
			<stop  offset="0" style="stop-color:#DB3EF7"/>
			<stop  offset="1" style="stop-color:#823298"/>
		</linearGradient>
		<path class="st1" d="M155.58,195.27c-21.89,0-39.69-17.81-39.69-39.69c0-21.89,17.81-39.69,39.69-39.69s39.69,17.81,39.69,39.69
			C195.27,177.47,177.47,195.27,155.58,195.27z M155.58,118.89c-20.23,0-36.69,16.46-36.69,36.69c0,20.23,16.46,36.69,36.69,36.69
			s36.69-16.46,36.69-36.69C192.27,135.35,175.81,118.89,155.58,118.89z"/>
	</g>
	<g>
		
			<linearGradient id="SVGID_3_" gradientUnits="userSpaceOnUse" x1="223.3387" y1="260.2257" x2="341.952" y2="260.2257" gradientTransform="matrix(-1 0 0 -1 438.226 415.8061)">
			<stop  offset="0" style="stop-color:#DB3EF7"/>
			<stop  offset="1" style="stop-color:#823298"/>
		</linearGradient>
		<path class="st2" d="M155.58,214.89c-32.7,0-59.31-26.6-59.31-59.31c0-32.7,26.6-59.31,59.31-59.31c32.7,0,59.31,26.6,59.31,59.31
			C214.89,188.28,188.28,214.89,155.58,214.89z M155.58,99.27c-31.05,0-56.31,25.26-56.31,56.31c0,31.05,25.26,56.31,56.31,56.31
			c31.05,0,56.31-25.26,56.31-56.31C211.89,124.53,186.63,99.27,155.58,99.27z"/>
	</g>
	<g>
		
			<linearGradient id="SVGID_4_" gradientUnits="userSpaceOnUse" x1="204.8231" y1="260.2259" x2="360.4681" y2="260.2259" gradientTransform="matrix(-1 0 0 -1 438.226 415.8061)">
			<stop  offset="0" style="stop-color:#DB3EF7"/>
			<stop  offset="1" style="stop-color:#823298"/>
		</linearGradient>
		<path class="st3" d="M155.58,233.4c-42.91,0-77.82-34.91-77.82-77.82c0-42.91,34.91-77.82,77.82-77.82
			c42.91,0,77.82,34.91,77.82,77.82C233.4,198.49,198.49,233.4,155.58,233.4z M155.58,80.76c-41.26,0-74.82,33.57-74.82,74.82
			c0,41.26,33.57,74.82,74.82,74.82c41.26,0,74.82-33.57,74.82-74.82C230.4,114.32,196.84,80.76,155.58,80.76z"/>
	</g>
	<g>
		
			<linearGradient id="SVGID_5_" gradientUnits="userSpaceOnUse" x1="185.7264" y1="260.2254" x2="379.5648" y2="260.2254" gradientTransform="matrix(-1 0 0 -1 438.226 415.8061)">
			<stop  offset="0" style="stop-color:#DB3EF7"/>
			<stop  offset="1" style="stop-color:#823298"/>
		</linearGradient>
		<path class="st4" d="M155.58,252.5c-53.44,0-96.92-43.48-96.92-96.92s43.48-96.92,96.92-96.92s96.92,43.48,96.92,96.92
			S209.02,252.5,155.58,252.5z M155.58,61.66c-51.79,0-93.92,42.13-93.92,93.92c0,51.79,42.13,93.92,93.92,93.92
			c51.79,0,93.92-42.13,93.92-93.92C249.5,103.79,207.37,61.66,155.58,61.66z"/>
	</g>
	<g>
		
			<linearGradient id="SVGID_6_" gradientUnits="userSpaceOnUse" x1="165.5965" y1="260.2254" x2="399.6937" y2="260.2254" gradientTransform="matrix(-1 0 0 -1 438.226 415.8061)">
			<stop  offset="0" style="stop-color:#DB3EF7"/>
			<stop  offset="1" style="stop-color:#823298"/>
		</linearGradient>
		<path class="st5" d="M155.58,272.63c-64.54,0-117.05-52.51-117.05-117.05c0-64.54,52.51-117.05,117.05-117.05
			c64.54,0,117.05,52.51,117.05,117.05C272.63,220.12,220.12,272.63,155.58,272.63z M155.58,41.53
			c-62.89,0-114.05,51.16-114.05,114.05c0,62.89,51.16,114.05,114.05,114.05c62.89,0,114.05-51.16,114.05-114.05
			C269.63,92.69,218.47,41.53,155.58,41.53z"/>
	</g>
	<g>
		
			<linearGradient id="SVGID_7_" gradientUnits="userSpaceOnUse" x1="146.9842" y1="260.2257" x2="418.3065" y2="260.2257" gradientTransform="matrix(-1 0 0 -1 438.226 415.8061)">
			<stop  offset="0" style="stop-color:#DB3EF7"/>
			<stop  offset="1" style="stop-color:#823298"/>
		</linearGradient>
		<path class="st6" d="M155.58,291.24c-74.8,0-135.66-60.86-135.66-135.66S80.78,19.92,155.58,19.92s135.66,60.86,135.66,135.66
			S230.38,291.24,155.58,291.24z M155.58,22.92c-73.15,0-132.66,59.51-132.66,132.66s59.51,132.66,132.66,132.66
			s132.66-59.51,132.66-132.66S228.73,22.92,155.58,22.92z"/>
	</g>
	<g>
		
			<linearGradient id="SVGID_8_" gradientUnits="userSpaceOnUse" x1="128.3709" y1="260.2254" x2="436.9198" y2="260.2254" gradientTransform="matrix(-1 0 0 -1 438.226 415.8061)">
			<stop  offset="0" style="stop-color:#DB3EF7"/>
			<stop  offset="1" style="stop-color:#823298"/>
		</linearGradient>
		<path class="st7" d="M155.58,309.85c-85.07,0-154.27-69.21-154.27-154.27C1.31,70.51,70.51,1.31,155.58,1.31
			s154.27,69.21,154.27,154.27C309.86,240.65,240.65,309.85,155.58,309.85z M155.58,4.31C72.17,4.31,4.31,72.17,4.31,155.58
			c0,83.41,67.86,151.27,151.27,151.27s151.27-67.86,151.27-151.27C306.86,72.17,238.99,4.31,155.58,4.31z"/>
	</g>
</g>
</svg>
