<svg width="842" height="596" viewBox="0 0 842 596" fill="none" xmlns="http://www.w3.org/2000/svg">
<path fill-rule="evenodd" clip-rule="evenodd" d="M350.979 183.855L348.892 181.602L348.887 181.607L347.537 180.15L346.495 179.027L346.861 177.548L347.333 175.638L352.288 155.584C352.453 148.864 353.658 142.89 355.685 137.497C364.999 112.709 388.644 100.127 408.049 89.3292C404.39 95.0952 392.709 116.104 393.857 123.165C393.915 123.521 393.989 123.887 394.079 124.265L394.784 123.965C396.028 123.431 397.17 122.931 398.208 122.466C399.936 121.692 401.589 120.928 403.185 120.163C404.62 119.477 406.282 118.652 408.202 117.671L408.207 117.68L416.666 113.361L423.179 110.035L420.597 116.871L419.121 120.778C421.218 120.486 423.233 120.226 425.198 119.985C428.434 119.589 432.176 119.171 435.945 118.752L438.282 118.491L440.508 118.24C444.201 117.463 447.739 116.644 451.213 115.765C454.723 114.877 458.069 113.953 461.354 112.976C464.749 111.967 468.095 110.899 471.499 109.756C474.909 108.61 478.437 107.367 482.169 106.016L492.371 102.323L500.221 99.4806L495.715 106.508L489.859 115.642L487.976 118.577L489.045 118.335L489.196 118.301L489.445 118.244C492.371 117.583 494.823 117.024 495.07 116.97L504.673 114.858L512.061 113.233L507.541 119.31L501.665 127.207C496.285 134.439 491.167 140.604 485.727 147.156L485.734 147.161L484.293 148.897L483.718 149.592C484.674 152.322 485.518 154.967 486.251 157.528C486.867 159.677 487.425 161.829 487.926 163.983C489.309 163.665 490.677 163.334 492.04 162.986C494.332 162.402 496.457 161.815 498.483 161.212C500.748 160.539 502.971 159.83 505.224 159.073C507.484 158.314 509.833 157.486 512.327 156.583L519.139 154.117L526.99 151.275L522.483 158.303L518.572 164.401L518.553 164.431C519.904 164.124 520.787 163.922 521.063 163.861L527.475 162.451L534.863 160.826L530.343 166.902L526.42 172.176C523.041 176.716 519.808 180.64 516.405 184.74V184.753L515.751 185.54L514.79 186.699L514.741 186.759C517.611 195.11 519.138 203.062 519.442 210.677C519.768 218.812 518.705 226.546 516.4 233.956C514.059 241.478 510.439 248.64 505.694 255.527C500.994 262.35 495.197 268.888 488.455 275.225L487.748 275.89L486.933 276.656L485.81 276.653L484.836 276.651L449.887 276.589C449.225 277.25 448.558 277.907 447.888 278.559C446.897 279.523 445.926 280.453 444.976 281.345L443.917 282.341L443.102 283.107L441.98 283.105L440.52 283.102L372.047 282.98L363.875 282.966L357.587 282.955L361.76 278.259L367.184 272.158C369.086 270.017 372.118 266.631 375.698 262.641C381.837 255.799 383.023 254.481 384.36 252.996L384.497 252.843C390.709 245.94 396.92 239.038 402.071 233.247C401.165 233.501 400.16 233.748 399.008 233.997L398.518 234.103L398.141 234.185L397.743 234.158L397.226 234.124C395.583 234.016 394.066 233.803 392.612 233.401C391.086 232.98 389.671 232.363 388.319 231.464C386.985 230.576 385.793 229.466 384.709 228.058C384.003 227.142 383.343 226.095 382.718 224.893H382.631L381.88 223.198C381.751 222.909 381.63 222.622 381.515 222.337C381.675 228.677 380.801 234.72 378.996 240.518C377.082 246.67 374.122 252.527 370.243 258.157C366.408 263.724 361.683 269.054 356.189 274.218L355.616 274.757L354.801 275.523L353.678 275.521L352.888 275.52L315.807 275.454L311.382 275.446L305.094 275.435L309.267 270.74L312.204 267.436C312.803 266.761 314.56 264.802 316.82 262.282L321.51 257.054L321.604 256.95C324.099 254.177 326.591 251.408 328.791 248.951C328.032 248.877 327.309 248.756 326.599 248.56C325.641 248.295 324.753 247.908 323.903 247.343C323.064 246.784 322.315 246.088 321.638 245.209C321.356 244.842 321.086 244.441 320.827 244.003H320.695L319.944 242.308C319.14 240.496 318.781 238.834 318.647 237.195C318.627 236.956 318.613 236.719 318.603 236.483L318.365 237.46L314.793 233.603L312.279 230.889L302.322 220.141L302.317 220.146L301.585 219.357L300.544 218.234L300.91 216.755L301.166 215.72L303.817 204.986C303.925 201.253 304.604 197.926 305.734 194.918C306.903 191.808 308.546 189.05 310.534 186.546C317.808 177.383 328.114 172.577 338.155 167.149C336.911 169.695 329.161 183.956 328.863 186.182L328.862 186.182C328.856 186.227 328.852 186.273 328.847 186.319L329.447 186.053C330.401 185.626 331.287 185.216 332.113 184.821C333.007 184.393 333.898 183.952 334.798 183.492L339.382 181.152L345.895 177.826L343.313 184.662L343.281 184.746C343.665 184.697 344.049 184.649 344.434 184.602C346.03 184.407 348.14 184.172 350.269 183.934L350.979 183.855ZM321.814 224.427L323.092 225.213L323.259 225.012L325.542 222.272C325.427 222.241 325.301 222.213 325.162 222.188C324.406 222.055 323.859 222.075 323.474 222.214C323.181 222.32 322.931 222.531 322.711 222.814C322.379 223.241 322.084 223.792 321.814 224.427Z" fill="#CCCCCC"/>
<path fill-rule="evenodd" clip-rule="evenodd" d="M352.884 184.421C357.041 183.549 360.728 182.608 364.372 181.524C368.055 180.429 371.695 179.187 375.734 177.725L381.259 175.725L378.087 180.671L375.065 185.383C376.508 185.075 377.925 184.755 379.353 184.431C380.736 184.119 382.134 183.802 382.522 183.717L387.723 182.573L384.541 186.85C381.632 190.76 378.883 194.071 375.961 197.59C375.451 198.204 374.939 198.822 374.318 199.573C379.375 213.573 379.653 226.101 376.065 237.635C372.405 249.397 364.734 260.047 354.022 270.117L353.448 270.656L352.658 270.654L315.577 270.588L311.152 270.58L314.089 267.276C317.111 263.876 320.248 260.39 323.384 256.905C327.261 252.597 331.14 248.287 334.461 244.531C335.344 243.532 336.233 242.423 336.995 241.243L336.655 241.413C336.181 241.651 336.345 241.576 335.638 241.936C333.674 242.938 332.558 243.507 329.854 244.092L329.588 244.15L329.308 244.131C327.72 244.026 326.423 243.732 325.235 242.942C324.067 242.165 323.138 240.984 322.313 239.126H322.305C320.985 236.15 321.126 233.674 321.287 230.853C321.322 230.235 321.358 229.601 321.375 229.084L321.488 225.651L323.565 226.929C323.627 226.836 323.689 226.744 323.751 226.653C324.146 226.079 324.58 225.519 325.2 224.775L327.65 221.834L328.341 224.376C328.679 223.834 329.054 223.291 329.543 222.625L330.146 221.803C329.513 220.513 328.921 219.544 328.284 218.847C327.535 218.026 326.652 217.573 325.421 217.356C322.907 216.911 321.319 217.661 320.246 219.044C318.947 220.717 318.173 223.327 317.51 226.051L316.634 229.645L314.12 226.932L304.157 216.177L303.426 215.388L303.682 214.353L306.402 203.341C306.537 196.29 308.889 190.836 312.518 186.265C316.09 181.765 320.867 178.187 325.95 174.778L333.812 169.506L328.74 177.497C327.059 180.148 326.066 182.017 325.832 183.764C325.657 185.066 325.889 186.45 326.552 188.228C327.87 187.685 329.13 187.146 330.368 186.591C332.201 185.769 333.991 184.914 335.852 183.964L340.436 181.624L338.718 186.17C342.635 185.565 346.466 185.138 350.348 184.705C351.191 184.611 352.035 184.517 352.884 184.42L352.884 184.421Z" fill="#CCCCCC"/>
<path fill-rule="evenodd" clip-rule="evenodd" d="M440.708 118.997C448.385 117.387 455.193 115.649 461.922 113.648C468.722 111.625 475.445 109.332 482.903 106.632L493.105 102.938L487.249 112.072L481.669 120.774C484.333 120.206 486.949 119.613 489.587 119.017C492.14 118.439 494.721 117.855 495.439 117.697L505.041 115.585L499.166 123.482C493.794 130.703 488.718 136.816 483.322 143.315C482.381 144.449 481.434 145.59 480.288 146.977C489.626 172.83 490.141 195.965 483.514 217.264C476.756 238.984 462.59 258.649 442.809 277.245L441.75 278.24L440.291 278.237L371.817 278.115L363.645 278.101L369.069 271.999C374.65 265.721 380.441 259.284 386.234 252.848C393.392 244.893 400.555 236.934 406.687 229.998C408.319 228.153 409.96 226.106 411.368 223.927L410.74 224.241C409.863 224.679 410.168 224.541 408.862 225.206C405.234 227.057 403.173 228.108 398.18 229.188L397.69 229.294L397.173 229.259C394.24 229.066 391.845 228.523 389.651 227.064C387.493 225.629 385.779 223.449 384.255 220.017H384.241C381.803 214.521 382.063 209.949 382.361 204.74C382.426 203.6 382.493 202.429 382.524 201.473L382.732 195.135L386.568 197.495C386.682 197.322 386.796 197.152 386.912 196.984C387.64 195.924 388.442 194.891 389.587 193.516L394.111 188.086L395.386 192.78C396.011 191.779 396.704 190.776 397.606 189.547L398.72 188.027C397.551 185.647 396.457 183.857 395.281 182.569C393.899 181.054 392.269 180.218 389.994 179.816C385.352 178.995 382.419 180.38 380.438 182.934C378.04 186.024 376.612 190.844 375.386 195.873L373.768 202.51L369.126 197.499L350.728 177.639L349.378 176.182L349.851 174.272L354.874 153.936C355.124 140.916 359.467 130.844 366.168 122.403C372.764 114.093 381.585 107.486 390.973 101.191L405.489 91.4567L396.125 106.213C393.019 111.107 391.185 114.559 390.753 117.785C390.431 120.189 390.858 122.746 392.083 126.029C394.516 125.026 396.844 124.03 399.13 123.005C402.515 121.488 405.821 119.909 409.257 118.154L417.721 113.832L414.55 122.228C421.782 121.111 428.858 120.322 436.026 119.523C437.581 119.349 439.142 119.175 440.708 118.997V118.997Z" fill="#CCCCCC"/>
<path fill-rule="evenodd" clip-rule="evenodd" d="M484.885 165.456C490.011 164.381 494.557 163.221 499.05 161.884C503.591 160.533 508.08 159.002 513.06 157.199L519.872 154.733L515.962 160.832L512.236 166.642C514.015 166.263 515.762 165.868 517.523 165.469C519.228 165.083 520.951 164.693 521.431 164.588L527.843 163.178L523.919 168.451C520.332 173.272 516.943 177.355 513.34 181.694C512.712 182.451 512.079 183.213 511.314 184.139C517.55 201.403 517.893 216.85 513.468 231.073C508.955 245.576 499.497 258.707 486.288 271.124L485.581 271.789L484.606 271.787L438.884 271.706L433.427 271.695L437.049 267.621C440.775 263.429 444.643 259.131 448.51 254.833C453.29 249.522 458.073 244.207 462.168 239.576C463.258 238.343 464.353 236.976 465.293 235.521L464.874 235.731C464.289 236.024 464.492 235.931 463.62 236.376C461.197 237.611 459.822 238.313 456.487 239.034L456.16 239.105L455.815 239.082C453.856 238.953 452.257 238.591 450.792 237.617C449.352 236.658 448.206 235.202 447.189 232.911H447.179C445.551 229.241 445.725 226.188 445.924 222.71C445.967 221.948 446.012 221.166 446.033 220.528L446.171 216.296L448.733 217.872C448.809 217.756 448.885 217.643 448.963 217.531C449.449 216.823 449.984 216.133 450.749 215.215L453.77 211.589L454.621 214.723C455.038 214.055 455.502 213.386 456.104 212.564L456.847 211.55C456.067 209.96 455.337 208.765 454.551 207.905C453.628 206.894 452.54 206.335 451.021 206.067C447.921 205.519 445.963 206.443 444.64 208.149C443.039 210.212 442.085 213.43 441.266 216.789L440.186 221.221L437.086 217.874L424.802 204.613L423.9 203.64L424.215 202.365L427.57 188.786C427.737 180.092 430.637 173.366 435.111 167.73C439.516 162.181 445.406 157.769 451.674 153.566L461.367 147.066L455.114 156.919C453.041 160.187 451.816 162.492 451.528 164.646C451.313 166.252 451.598 167.959 452.416 170.151C454.041 169.481 455.595 168.816 457.121 168.132C459.381 167.119 461.589 166.064 463.883 164.893L469.535 162.007L467.418 167.613C472.247 166.867 476.972 166.34 481.758 165.807C482.797 165.691 483.839 165.574 484.884 165.456L484.885 165.456Z" fill="#CCCCCC"/>
<path fill-rule="evenodd" clip-rule="evenodd" d="M325.446 388.05C292.949 388.05 260.453 388.05 227.956 388.05H220.869V380.963V366.79V279.811V265.638V258.551H227.956H242.129H265.254H266.446H279.427H280.62H290.35H303.744H310.316H317.917H334.962H345.607H345.87H356.487H373.532H381.133H387.705H401.099H434.368C435.288 258.551 436.198 258.575 437.097 258.623V258.551H444.184H458.357H503.542C507.996 258.551 512.129 259.028 515.941 259.98C518.342 260.58 520.649 261.409 522.863 262.467C524.885 263.433 526.768 264.582 528.509 265.91L528.994 263.949L530.33 258.551H535.859H546.919H553.672H566.074H572.386H583.445H588.974L590.31 263.949L592.982 274.745L614.506 361.724L618.849 379.275L621.02 388.05H611.984H593.91H569.921H561.012H558.292H549.383H543.357H525.394H521.451H507.32H325.446Z" fill="#CCCCCC"/>
<path fill-rule="evenodd" clip-rule="evenodd" d="M318.892 380.963H304.719H281.595H280.402H267.421H266.228H243.104H228.931V366.79V279.811V265.638H243.104H266.228H267.421H280.402H281.595H291.325H304.719H311.291H318.892H335.937H346.582H346.845H357.462H374.507H382.107H388.68H402.074H435.343C438.917 265.638 442.19 266.037 445.159 266.835V265.638H459.332H504.516C508.417 265.638 511.978 266.04 515.199 266.845C519.202 267.845 522.657 269.496 525.56 271.797L525.539 271.824C528.952 274.537 531.42 277.714 532.945 281.357L534.163 276.434L536.834 265.638H547.893H554.647H567.049H573.361H584.42L587.091 276.434L608.615 363.413L612.958 380.963H594.885H570.896H561.987H559.267H550.358H544.331H526.369H522.426H508.295H497.78H497.33H488.344H483.157H459.332H445.159V379.209C444.342 379.45 443.5 379.664 442.632 379.851C439.195 380.593 435.287 380.963 430.907 380.963H388.68H373.442H359.269H334.13H318.892Z" fill="black"/>
<path fill-rule="evenodd" clip-rule="evenodd" d="M304.719 366.79H280.402V331.999H267.421V366.79H243.104V279.811H267.421V317.002H280.402V279.811H304.719V366.79ZM359.269 366.79H334.13V344.715L311.291 279.811H335.937L346.617 320.841L357.462 279.811H382.107L359.269 344.715V366.79ZM412.34 295.047V351.554H423.513C424.499 351.554 425.129 351.414 425.402 351.134C425.677 350.854 425.813 350.394 425.813 349.754V296.727C425.813 295.607 425.101 295.047 423.677 295.047H412.34ZM449.474 353.353C449.474 358.152 448.104 361.591 445.366 363.671C442.627 365.75 437.808 366.79 430.907 366.79H388.68V279.811H435.343C440.053 279.811 443.586 280.771 445.941 282.69C448.296 284.61 449.474 287.169 449.474 290.368V353.353ZM483.157 295.047V325.04H494.822C496.356 325.04 497.122 324.44 497.122 323.241V296.847C497.122 295.647 496.356 295.047 494.822 295.047H483.157ZM520.618 331.399C520.618 333.318 519.715 335.078 517.907 336.677C516.1 338.277 513.444 339.077 509.938 339.077L522.426 366.79H497.78L486.278 339.077H483.157V366.79H459.332V279.811H504.517C510.103 279.811 514.183 280.831 516.757 282.87C519.331 284.91 520.618 287.649 520.618 291.088V331.399ZM552.494 355.993L550.358 366.79H526.369L547.893 279.811H573.361L594.885 366.79H570.896L568.76 355.993H552.494ZM555.123 342.196H566.131L560.709 311.363L555.123 342.196Z" fill="#E6E6E6"/>
<path fill-rule="evenodd" clip-rule="evenodd" d="M353.425 186.828C361.94 185.048 368.492 182.986 376.65 180.032L371.108 188.676C375.24 187.946 379.103 187 383.181 186.102C379.498 191.053 376.112 194.993 372.295 199.628C382.839 227.616 373.835 249.421 352.896 269.105L315.816 269.038C322.584 261.423 329.44 253.917 336.187 246.286C339.122 242.967 342.13 238.483 341.151 233.872C339.76 235.073 338.54 236.047 337.325 237.435L336.005 240.074C333.469 241.342 332.546 241.96 329.671 242.581C327.163 242.416 325.682 241.724 324.367 238.761C322.979 235.633 323.49 232.951 323.601 229.584L324.458 230.112C325.371 228.539 325.844 227.829 326.965 226.483C327.314 227.768 327.772 228.47 328.747 228.792C329.687 226.755 330.112 225.977 331.386 224.24L331.584 225.229L333.036 223.25C330.922 218.396 329.385 216.428 326.002 215.83C319.235 214.633 317.252 220.126 315.815 226.021L305.852 215.266L308.623 204.051C308.78 190.715 317.655 182.927 328.608 175.649C324.952 181.41 323.516 185.793 325.712 191.251C329.715 189.65 333.161 188.128 336.994 186.171L335.873 189.14C341.754 188.07 347.511 187.5 353.425 186.828V186.828Z" fill="black"/>
<path fill-rule="evenodd" clip-rule="evenodd" d="M320.417 197.773C325.772 196.94 328.372 194.744 332.822 191.868L331.139 194.276C338.637 191.85 344.361 191.272 352.219 191.472C360.086 191.193 362.917 189.239 369.506 185.303C364.292 191.646 358.172 195.397 350.141 195.563C360.89 199.563 368.124 195.307 376.829 190.284C368.541 199.724 361.102 204.014 349.052 204.273C353.281 206.532 354.123 207.565 354.924 212.124C350.059 209.131 347.366 208.816 341.662 208.957C338.75 211.909 338.556 211.98 334.832 213.609C333.504 211.732 333.258 211.156 332.49 208.957C331.515 211.506 333.014 212.552 334.14 215.027C334.343 216.892 334.272 217.749 334.139 219.58C332.849 217.135 331.365 215.244 329.432 214.062C326.121 212.037 321.21 212.038 318.324 214.856C316.369 216.765 315.357 219.644 314.444 222.154L308.242 214.533C309.36 211.138 310.268 207.84 311.276 204.439C313.838 204.497 315.068 203.78 316.818 202.03C314.662 203.108 313.842 203.449 311.408 203.449L310.946 202.261C311.601 197.676 314.43 190.694 319.984 186.492C319.241 189.561 316.212 196.17 320.417 197.773V197.773Z" fill="#0F6DB7"/>
<path fill-rule="evenodd" clip-rule="evenodd" d="M317.213 206.32L321.732 202.724C319.733 205.698 319.727 205.221 322.656 207.21L317.213 206.32Z" fill="black"/>
<path fill-rule="evenodd" clip-rule="evenodd" d="M312.741 210.246L313.813 211.285C314.705 210.514 315.447 209.979 316.403 209.306C314.906 211.801 314.409 212.714 313.88 215.574L311.9 213.661C312.113 212.352 312.383 211.492 312.741 210.246Z" fill="black"/>
<path fill-rule="evenodd" clip-rule="evenodd" d="M329.549 199.245C332.464 197.831 335.311 196.367 338.192 194.89C336.165 196.481 334.208 197.982 332.287 199.707C336.69 198.688 341.057 197.689 345.483 196.771C340.538 199.029 340.324 199.195 336.806 203.171C332.301 203.383 329.025 203.926 324.699 205.216L329.549 199.245Z" fill="black"/>
<path fill-rule="evenodd" clip-rule="evenodd" d="M331.197 200.945C333.979 200.881 335.417 200.512 338.059 199.757C336.557 201.485 333.074 203.09 331.197 200.945Z" fill="#FFFF00"/>
<path fill-rule="evenodd" clip-rule="evenodd" d="M345.464 201.043L347.741 198.784C350.493 199.691 352.918 199.747 355.741 200.252C352.015 201.071 349.261 201.217 345.464 201.043V201.043Z" fill="black"/>
<path fill-rule="evenodd" clip-rule="evenodd" d="M339.64 214.371C344.785 212.228 347.098 212.003 352.111 214.47C348.651 214.379 347.97 213.686 345.579 216.021C351.077 215.486 354.769 217.838 359.302 220.771C346.41 223.642 342.122 227.209 333.636 236.573L335.219 238.256C333.63 238.635 333.356 238.726 331.821 238.157L332.778 240.17C330.741 239.979 330.293 240.083 328.423 239.081L328.687 241.093C325.705 239.343 324.881 236.515 324.563 233.209C325.391 234.078 325.394 233.975 326.444 234.43C326.444 232.545 326.522 232.361 327.203 230.636C328.722 232.493 328.688 232.407 330.996 232.879C330.914 229.61 331.18 228.735 332.745 225.885C332.794 227.886 332.571 229.408 333.273 231.262C335.722 227.447 338.706 224.307 341.619 220.837C341.531 217.921 342.387 215.746 339.64 214.371V214.371Z" fill="#0F6DB7"/>
<path fill-rule="evenodd" clip-rule="evenodd" d="M336.703 254.487C340.921 250.485 344.366 247.004 348.042 242.432C354.063 234.945 357.92 228.436 361.082 222.668C358.464 232.469 356.414 236.378 350.832 242.644C346.339 247.69 342.497 251.019 336.703 254.487Z" fill="#0F6DB7"/>
<path fill-rule="evenodd" clip-rule="evenodd" d="M338.351 247.626C342.539 243.481 344.781 240.701 346.466 235.222C346.729 236.273 347.138 237.132 347.489 238.158C349.291 236.787 350.309 235.662 352.306 234.331C349.025 240.443 344.948 244.813 338.351 247.626V247.626Z" fill="#0F6DB7"/>
<path fill-rule="evenodd" clip-rule="evenodd" d="M347.456 228.228L349.699 230.505L354.285 226.15L349.732 234.43L347.456 228.228Z" fill="#0F6DB7"/>
<path fill-rule="evenodd" clip-rule="evenodd" d="M368.766 206.257C380.87 233.974 361.528 260.041 345.264 266.539L331.059 266.53C339.43 257.361 344.57 249.409 357.219 248.155C352.644 251.567 351.696 252.122 348.939 257.161C352.905 253.74 354.314 252.593 359.1 250.365C367.715 237.921 369.608 229.4 368.139 215.199C369.609 218.698 370.142 220.682 370.844 224.37C370.458 217.503 369.994 212.978 368.766 206.257V206.257Z" fill="#0F6DB7"/>
<path fill-rule="evenodd" clip-rule="evenodd" d="M440.892 123.393C456.616 120.107 468.715 116.299 483.78 110.844L473.545 126.805C481.178 125.458 488.309 123.711 495.841 122.053C489.039 131.195 482.786 138.472 475.737 147.031C495.208 198.714 478.581 238.978 439.916 275.327L371.442 275.205C383.942 261.142 396.601 247.281 409.061 233.189C414.481 227.06 420.034 218.781 418.228 210.266C415.66 212.484 413.405 214.282 411.161 216.845L408.725 221.719C404.042 224.06 402.338 225.2 397.028 226.349C392.397 226.044 389.661 224.764 387.233 219.294C384.671 213.518 385.615 208.565 385.818 202.347L387.402 203.322C389.089 200.418 389.961 199.107 392.032 196.621C392.676 198.995 393.522 200.291 395.322 200.886C397.058 197.124 397.843 195.686 400.195 192.479L400.561 194.306L403.241 190.651C399.338 181.688 396.5 178.053 390.252 176.949C377.757 174.739 374.095 184.883 371.442 195.768L353.044 175.909L358.161 155.197C358.45 130.572 374.406 117.229 392.641 105.001C385.89 115.639 384.624 120.357 389.717 131.562C397.109 128.605 403.473 125.794 410.551 122.18L408.48 127.663C419.34 125.688 429.971 124.635 440.892 123.393V123.393Z" fill="black"/>
<path fill-rule="evenodd" clip-rule="evenodd" d="M379.94 143.605C389.829 142.067 394.629 138.012 402.847 132.7L399.74 137.148C413.584 132.668 424.155 131.6 438.666 131.969C453.194 131.455 458.421 127.846 470.587 120.578C460.96 132.291 449.658 139.218 434.828 139.524C454.678 146.911 468.036 139.051 484.112 129.776C468.806 147.207 455.069 155.13 432.817 155.607C440.626 159.78 442.182 161.687 443.66 170.106C434.677 164.578 429.705 163.997 419.17 164.258C413.793 169.709 413.435 169.84 406.559 172.848C404.107 169.381 403.652 168.319 402.234 164.258C400.434 168.965 403.202 170.897 405.28 175.467C405.655 178.911 405.524 180.492 405.279 183.874C402.898 179.359 400.157 175.867 396.587 173.684C390.473 169.945 381.405 169.947 376.075 175.151C372.465 178.677 370.596 183.991 368.911 188.626L357.458 174.554C359.522 168.285 361.199 162.195 363.06 155.913C367.791 156.021 370.063 154.698 373.294 151.467C369.313 153.457 367.798 154.086 363.304 154.086L362.45 151.893C363.661 143.425 368.884 130.533 379.141 122.773C377.769 128.44 372.174 140.644 379.941 143.605H379.94Z" fill="#0F6DB7"/>
<path fill-rule="evenodd" clip-rule="evenodd" d="M374.023 159.387L382.368 152.747C378.677 158.239 378.665 157.358 384.074 161.032L374.023 159.387Z" fill="black"/>
<path fill-rule="evenodd" clip-rule="evenodd" d="M365.765 166.638L367.745 168.557C369.393 167.133 370.762 166.145 372.528 164.902C369.763 169.509 368.846 171.196 367.868 176.477L364.213 172.943C364.606 170.526 365.103 168.938 365.765 166.638Z" fill="black"/>
<path fill-rule="evenodd" clip-rule="evenodd" d="M396.802 146.323C402.186 143.713 407.443 141.008 412.764 138.281C409.02 141.219 405.406 143.99 401.859 147.176C409.989 145.295 418.053 143.449 426.227 141.754C417.094 145.924 416.7 146.23 410.205 153.572C401.885 153.964 395.835 154.967 387.847 157.35L396.802 146.323Z" fill="black"/>
<path fill-rule="evenodd" clip-rule="evenodd" d="M399.846 149.462C404.984 149.344 407.639 148.663 412.518 147.269C409.744 150.46 403.313 153.423 399.846 149.462Z" fill="#FFFF00"/>
<path fill-rule="evenodd" clip-rule="evenodd" d="M426.192 149.644L430.396 145.471C435.478 147.147 439.957 147.25 445.169 148.182C438.289 149.694 433.204 149.965 426.192 149.644Z" fill="black"/>
<path fill-rule="evenodd" clip-rule="evenodd" d="M415.438 174.256C424.937 170.298 429.21 169.881 438.466 174.438C432.078 174.269 430.82 172.99 426.403 177.302C436.557 176.314 443.374 180.657 451.746 186.074C427.938 191.376 420.021 197.962 404.35 215.254L407.273 218.362C404.339 219.061 403.833 219.229 400.999 218.179L402.765 221.895C399.005 221.543 398.178 221.735 394.724 219.885L395.212 223.601C389.705 220.369 388.184 215.146 387.597 209.041C389.125 210.646 389.131 210.457 391.069 211.295C391.069 207.816 391.213 207.475 392.47 204.29C395.276 207.719 395.213 207.56 399.476 208.432C399.323 202.396 399.815 200.779 402.704 195.517C402.795 199.213 402.383 202.022 403.679 205.447C408.203 198.4 413.712 192.603 419.091 186.196C418.929 180.811 420.509 176.794 415.438 174.256V174.256Z" fill="#0F6DB7"/>
<path fill-rule="evenodd" clip-rule="evenodd" d="M410.014 248.333C417.803 240.943 424.164 234.515 430.953 226.073C442.071 212.247 449.193 200.228 455.033 189.577C450.197 207.675 446.412 214.894 436.105 226.464C427.807 235.782 420.712 241.93 410.014 248.333V248.333Z" fill="#0F6DB7"/>
<path fill-rule="evenodd" clip-rule="evenodd" d="M413.057 235.664C420.79 228.009 424.93 222.876 428.043 212.758C428.529 214.7 429.282 216.286 429.932 218.18C433.259 215.648 435.139 213.572 438.826 211.113C432.768 222.399 425.238 230.469 413.057 235.664V235.664Z" fill="#0F6DB7"/>
<path fill-rule="evenodd" clip-rule="evenodd" d="M429.87 199.844L434.012 204.048L442.48 196.006L434.073 211.297L429.87 199.844Z" fill="#0F6DB7"/>
<path fill-rule="evenodd" clip-rule="evenodd" d="M469.222 159.272C491.573 210.454 455.856 258.59 425.822 270.589L399.591 270.572C415.049 253.641 424.54 238.956 447.899 236.64C439.45 242.941 437.7 243.966 432.608 253.271C439.932 246.953 442.534 244.836 451.371 240.722C467.28 217.743 470.777 202.007 468.064 175.783C470.777 182.245 471.762 185.909 473.059 192.719C472.346 180.038 471.489 171.682 469.222 159.272V159.272Z" fill="#0F6DB7"/>
<path fill-rule="evenodd" clip-rule="evenodd" d="M484.294 168.09C494.793 165.895 502.872 163.353 512.932 159.71L506.098 170.368C511.194 169.469 515.956 168.302 520.985 167.195C516.444 173.299 512.268 178.158 507.561 183.873C520.563 218.384 509.46 245.27 483.642 269.542L437.919 269.46C446.266 260.07 454.719 250.814 463.039 241.405C466.658 237.312 470.366 231.784 469.16 226.098C467.445 227.579 465.939 228.78 464.441 230.491L462.814 233.745C459.688 235.309 458.549 236.07 455.004 236.837C451.912 236.633 450.085 235.779 448.464 232.126C446.753 228.269 447.383 224.962 447.519 220.81L448.577 221.461C449.702 219.522 450.285 218.647 451.668 216.987C452.098 218.572 452.663 219.437 453.865 219.834C455.024 217.323 455.548 216.363 457.119 214.221L457.363 215.441L459.153 213C456.547 207.015 454.651 204.588 450.48 203.851C442.136 202.375 439.691 209.149 437.919 216.417L425.634 203.156L429.051 189.326C429.244 172.883 439.898 163.973 452.075 155.808C447.567 162.912 446.721 166.062 450.122 173.544C455.058 171.569 459.308 169.693 464.034 167.279L462.651 170.941C469.903 169.622 477.001 168.919 484.294 168.09V168.09Z" fill="black"/>
<path fill-rule="evenodd" clip-rule="evenodd" d="M443.594 181.586C450.197 180.559 453.402 177.851 458.889 174.304L456.815 177.274C466.059 174.283 473.117 173.57 482.807 173.816C492.508 173.473 495.998 171.063 504.122 166.21C497.694 174.031 490.147 178.656 480.244 178.861C493.499 183.793 502.419 178.545 513.153 172.352C502.933 183.991 493.76 189.282 478.902 189.6C484.116 192.387 485.155 193.66 486.142 199.282C480.143 195.59 476.823 195.203 469.789 195.377C466.199 199.016 465.96 199.104 461.368 201.113C459.731 198.798 459.427 198.088 458.48 195.377C457.278 198.52 459.127 199.81 460.514 202.862C460.764 205.161 460.677 206.217 460.513 208.475C458.923 205.46 457.093 203.129 454.709 201.671C450.627 199.174 444.572 199.176 441.013 202.65C438.602 205.005 437.354 208.554 436.229 211.648L428.581 202.251C429.959 198.065 431.079 193.999 432.322 189.805C435.481 189.877 436.998 188.993 439.156 186.835C436.497 188.165 435.486 188.585 432.485 188.585L431.915 187.12C432.723 181.466 436.211 172.857 443.06 167.676C442.144 171.459 438.408 179.609 443.594 181.586Z" fill="#0F6DB7"/>
<path fill-rule="evenodd" clip-rule="evenodd" d="M439.642 192.124L445.215 187.69C442.75 191.357 442.742 190.769 446.354 193.223L439.642 192.124Z" fill="black"/>
<path fill-rule="evenodd" clip-rule="evenodd" d="M434.129 196.966L435.451 198.247C436.551 197.297 437.465 196.637 438.644 195.807C436.798 198.883 436.186 200.009 435.533 203.536L433.092 201.176C433.355 199.562 433.687 198.502 434.129 196.966V196.966Z" fill="black"/>
<path fill-rule="evenodd" clip-rule="evenodd" d="M454.853 183.401C458.448 181.658 461.958 179.852 465.511 178.031C463.012 179.992 460.599 181.843 458.23 183.97C463.659 182.714 469.043 181.482 474.501 180.35C468.403 183.135 468.14 183.339 463.803 188.241C458.247 188.503 454.208 189.173 448.874 190.764L454.853 183.401Z" fill="black"/>
<path fill-rule="evenodd" clip-rule="evenodd" d="M456.886 185.497C460.316 185.418 462.089 184.963 465.347 184.032C463.495 186.164 459.201 188.142 456.886 185.497Z" fill="#FFFF00"/>
<path fill-rule="evenodd" clip-rule="evenodd" d="M474.478 185.618L477.285 182.832C480.679 183.951 483.669 184.02 487.149 184.642C482.555 185.652 479.16 185.833 474.478 185.618V185.618Z" fill="black"/>
<path fill-rule="evenodd" clip-rule="evenodd" d="M467.297 202.053C473.64 199.41 476.493 199.132 482.673 202.174C478.408 202.061 477.568 201.208 474.619 204.086C481.399 203.427 485.951 206.327 491.541 209.944C475.644 213.484 470.357 217.882 459.893 229.429L461.845 231.504C459.886 231.97 459.548 232.083 457.656 231.382L458.835 233.863C456.324 233.628 455.772 233.756 453.466 232.521L453.791 235.002C450.114 232.844 449.098 229.356 448.706 225.28C449.727 226.352 449.731 226.225 451.025 226.785C451.025 224.462 451.121 224.234 451.961 222.107C453.834 224.397 453.792 224.291 456.638 224.873C456.536 220.843 456.865 219.763 458.794 216.249C458.855 218.717 458.579 220.593 459.445 222.88C462.466 218.175 466.145 214.304 469.737 210.025C469.628 206.43 470.683 203.747 467.297 202.053V202.053Z" fill="#0F6DB7"/>
<path fill-rule="evenodd" clip-rule="evenodd" d="M463.675 251.517C468.876 246.582 473.124 242.29 477.657 236.653C485.081 227.421 489.837 219.396 493.736 212.283C490.507 224.368 487.98 229.188 481.097 236.914C475.556 243.136 470.819 247.241 463.675 251.517Z" fill="#0F6DB7"/>
<path fill-rule="evenodd" clip-rule="evenodd" d="M465.707 243.057C470.871 237.946 473.635 234.518 475.714 227.762C476.038 229.058 476.541 230.118 476.975 231.383C479.197 229.692 480.452 228.305 482.914 226.664C478.869 234.2 473.841 239.589 465.707 243.057V243.057Z" fill="#0F6DB7"/>
<path fill-rule="evenodd" clip-rule="evenodd" d="M476.934 219.139L479.7 221.946L485.354 216.576L479.741 226.786L476.934 219.139Z" fill="#0F6DB7"/>
<path fill-rule="evenodd" clip-rule="evenodd" d="M503.211 192.047C518.135 226.224 494.286 258.366 474.231 266.378L456.715 266.367C467.037 255.061 473.375 245.256 488.973 243.709C483.33 247.916 482.162 248.601 478.763 254.814C483.653 250.595 485.39 249.182 491.291 246.435C501.914 231.091 504.249 220.583 502.437 203.073C504.249 207.387 504.907 209.834 505.773 214.381C505.297 205.913 504.724 200.334 503.211 192.047Z" fill="#0F6DB7"/>
<path fill-rule="evenodd" clip-rule="evenodd" d="M304.74 332.66V366.859H280.423V336.877C288.863 335.406 296.902 333.946 304.74 332.66ZM267.443 339.104V366.859H243.125V342.689C251.771 341.539 259.805 340.362 267.443 339.104V339.104ZM365.393 327.441L359.29 344.784V366.859H334.151V344.784L328.683 329.242C340.358 327.738 352.237 327.147 365.393 327.441ZM449.495 316.736V353.422C449.495 358.221 448.125 361.66 445.387 363.739C442.649 365.819 437.829 366.859 430.928 366.859H388.701V328.817C397.536 329.709 403.357 331.025 412.361 329.497V351.622H423.534C424.52 351.622 425.15 351.482 425.424 351.202C425.698 350.923 425.834 350.463 425.834 349.823V325.853C434.148 322.954 441.941 319.282 449.495 316.736V316.736ZM520.639 322.408V331.467C520.639 333.387 519.736 335.146 517.929 336.746C516.121 338.346 513.465 339.145 509.96 339.145L522.447 366.859H497.801L486.3 339.145H483.178V366.859H459.353V314.228C466.561 313.11 475.961 313.586 483.178 314.368V325.109H494.843C496.377 325.109 497.144 324.509 497.144 323.309V316.689C506.339 318.654 513.867 320.944 520.639 322.408V322.408ZM583.364 320.215L594.906 366.859H570.917L568.781 356.061H552.515L550.379 366.859H526.39L536.757 324.968C543.539 325.756 550.374 325.525 558.325 324.71L555.144 342.264H566.152L562.965 324.137C568.911 323.302 575.584 322.14 583.364 320.215V320.215Z" fill="#CCCCCC"/>
<path fill-rule="evenodd" clip-rule="evenodd" d="M428.703 511.615H426.211H419.124H417.818H393.134H392.661H388.405H385.575H383.676H378.488H354.627H347.54H340.453H333.367V504.528V497.442V490.355V402.158V395.071V387.984V380.898H340.453H347.54H354.627H399.881C401.541 380.898 403.231 380.979 404.951 381.14V380.898H412.038H419.124H426.211H473.11C475.019 380.898 477.012 381.032 479.089 381.302C481.072 381.559 482.998 381.945 484.866 382.459C486.157 382.813 487.264 383.167 488.187 383.518C489.204 383.905 490.251 384.369 491.325 384.91L491.319 384.921C492.422 385.476 493.443 386.058 494.378 386.664C495.343 387.289 496.276 387.974 497.178 388.717C498.131 389.504 499.001 390.301 499.787 391.106C500.594 391.932 501.358 392.811 502.078 393.739C502.845 394.727 503.515 395.694 504.086 396.638L504.065 396.65C504.73 397.748 505.284 398.787 505.728 399.764C506.183 400.766 506.587 401.811 506.94 402.897C507.279 403.941 507.569 405.041 507.81 406.194C508.039 407.293 508.213 408.406 508.33 409.53C508.458 410.754 508.522 411.866 508.522 412.863V455.076C508.522 455.223 508.504 455.695 508.469 456.492C508.435 457.261 508.409 457.754 508.393 457.948C508.383 458.068 508.327 458.507 508.226 459.272C508.181 459.618 508.106 460.119 508.005 460.763C507.86 461.684 507.776 462.2 507.752 462.323C507.675 462.712 507.566 463.195 507.423 463.776C507.277 464.364 507.145 464.858 507.026 465.258C506.931 465.577 506.767 466.07 506.536 466.736C506.303 467.406 506.045 468.065 505.765 468.708C505.518 469.276 505.208 469.914 504.84 470.617C504.482 471.299 504.124 471.931 503.766 472.51C503.337 473.203 502.942 473.798 502.58 474.292C502.189 474.826 501.777 475.35 501.347 475.861C500.946 476.336 500.501 476.826 500.015 477.33C499.506 477.858 499.03 478.324 498.589 478.726C498.148 479.128 497.648 479.553 497.094 479.997C496.69 480.32 496.167 480.707 495.53 481.154C494.99 481.533 494.445 481.892 493.9 482.229C493.341 482.575 492.785 482.9 492.234 483.201C491.578 483.56 491.018 483.849 490.555 484.069C490.031 484.316 489.522 484.543 489.031 484.747H489.003C488.447 484.977 487.91 485.187 487.397 485.374C487.054 485.499 486.525 485.675 485.817 485.9C485.146 486.114 484.601 486.279 484.188 486.393C483.424 486.604 482.846 486.756 482.456 486.847H482.428C481.894 486.971 481.319 487.092 480.702 487.208C479.955 487.348 479.356 487.453 478.906 487.52C478.401 487.595 477.82 487.67 477.163 487.742C476.493 487.816 475.939 487.871 475.498 487.906C475.258 487.925 474.668 487.96 473.731 488.01C473.257 488.035 472.648 488.06 471.906 488.084L471.167 488.108V490.355V497.442V504.528V511.615H464.081H456.994H449.907H428.703Z" fill="#CCCCCC"/>
<path fill-rule="evenodd" clip-rule="evenodd" d="M428.703 504.528H426.211H419.124H417.818H393.134H392.661H388.405H385.574H383.676H378.488H354.627H347.54H340.453V497.442V490.355V402.158V395.071V387.984H347.54H354.627H399.881C404.114 387.984 407.951 388.467 411.391 389.432C411.608 389.493 411.824 389.556 412.038 389.62V387.984H419.124H426.211H473.11C476.6 387.984 479.901 388.413 483.011 389.268C484.846 389.773 486.557 390.425 488.142 391.221C489.809 392.06 491.327 393.043 492.693 394.171C494.134 395.359 495.399 396.656 496.487 398.057C497.605 399.498 498.536 401.037 499.278 402.67C499.987 404.232 500.525 405.887 500.889 407.633C501.253 409.377 501.436 411.121 501.436 412.863V455.076C501.436 455.794 501.402 456.558 501.334 457.366C501.288 457.916 501.186 458.689 501.029 459.684C500.885 460.598 500.727 461.399 500.558 462.087C500.369 462.85 500.138 463.625 499.865 464.41C499.521 465.397 499.094 466.378 498.584 467.351C498.053 468.362 497.485 469.283 496.878 470.112C496.291 470.914 495.638 471.688 494.921 472.431C494.214 473.164 493.462 473.85 492.665 474.488C491.923 475.083 491.097 475.662 490.191 476.222C489.297 476.776 488.412 477.26 487.538 477.674C486.764 478.04 485.913 478.393 484.989 478.73C484.153 479.034 483.259 479.32 482.306 479.583C481.341 479.85 480.372 480.076 479.401 480.259C478.387 480.45 477.382 480.601 476.388 480.711C475.476 480.812 474.47 480.892 473.372 480.951C472.142 481.017 471.123 481.05 470.313 481.05H464.081V490.355V497.442V504.528H456.994H449.908H428.703Z" fill="black"/>
<path fill-rule="evenodd" clip-rule="evenodd" d="M378.488 417.607V448.02H390.172C391.708 448.02 392.476 447.412 392.476 446.196V419.432C392.476 418.216 391.708 417.607 390.172 417.607H378.488ZM416.008 454.468C416.008 456.414 415.103 458.199 413.293 459.821C411.483 461.443 408.822 462.254 405.311 462.254L417.818 490.355H393.134L381.615 462.254H378.488V490.355H354.627V402.158H399.881C405.476 402.158 409.563 403.192 412.141 405.26C414.719 407.328 416.008 410.105 416.008 413.593V454.468ZM449.908 417.607V452.278H461.756C462.743 452.278 463.374 452.136 463.648 451.852C463.923 451.568 464.06 451.102 464.06 450.453V419.311C464.06 418.175 463.347 417.607 461.921 417.607H449.908ZM473.11 402.158C477.828 402.158 481.366 403.131 483.725 405.077C486.084 407.024 487.263 409.619 487.263 412.863V455.076C487.263 456.779 487.016 458.34 486.522 459.76C486.028 461.179 485.123 462.416 483.807 463.47C482.491 464.524 480.735 465.356 478.541 465.964C476.347 466.572 473.604 466.876 470.313 466.876H449.908V490.355H426.211V402.158H473.11Z" fill="#E6E6E6"/>
<path fill-rule="evenodd" clip-rule="evenodd" d="M416.017 454.435C416.017 456.381 415.112 458.166 413.302 459.788C411.492 461.409 408.831 462.22 405.32 462.22L417.827 490.322H393.143L381.624 462.22H378.497V490.322H354.636V453.014C375.856 454.781 396.206 455.996 416.017 454.435V454.435ZM487.272 432.623V455.043C487.272 456.746 487.025 458.307 486.531 459.727C486.037 461.146 485.133 462.383 483.816 463.437C482.5 464.491 480.744 465.323 478.55 465.931C476.356 466.539 473.613 466.843 470.322 466.843H449.917V490.322H426.22V453.29C434.186 452.26 442.09 450.748 449.917 448.596V452.245H461.765C462.752 452.245 463.383 452.103 463.657 451.819C463.932 451.535 464.069 451.069 464.069 450.42V443.991C471.847 441.024 479.564 437.145 487.272 432.623Z" fill="#CCCCCC"/>
</svg>
