<svg width="16" height="21" viewBox="0 0 16 21" fill="none" xmlns="http://www.w3.org/2000/svg">
<path d="M9.25 0.5H6.75C3.27344 0.5 0.5 3.3125 0.5 6.75V14.25C0.5 17.7266 3.27344 20.5 6.75 20.5H9.25C12.6875 20.5 15.5 17.7266 15.5 14.25V6.75C15.5 3.3125 12.6875 0.5 9.25 0.5ZM13.625 14.25C13.5859 16.6719 11.6328 18.625 9.25 18.625H6.75C4.32812 18.625 2.375 16.6719 2.375 14.25V6.75C2.375 4.36719 4.32812 2.41406 6.75 2.375H9.25C11.6328 2.41406 13.5859 4.36719 13.625 6.75V14.25ZM8 4.25C7.29688 4.25 6.75 4.83594 6.75 5.5V6.75C6.75 7.45312 7.29688 8 8 8C8.66406 8 9.25 7.45312 9.25 6.75V5.5C9.25 4.83594 8.66406 4.25 8 4.25Z" fill="white"/>
</svg>
