<svg width="540" height="420" viewBox="0 0 540 420" fill="none" xmlns="http://www.w3.org/2000/svg">
<path d="M295.312 210C301.875 192.188 310.312 175.312 321.562 161.25C315 164.062 307.5 165 299.062 165C266.25 165 239.062 138.75 239.062 105C239.062 72.1875 266.25 45 299.062 45C332.812 45 359.062 72.1875 359.062 105C359.062 113.438 358.125 120.938 355.312 127.5C369.375 116.25 386.25 107.812 404.062 101.25C402.188 45 356.25 0 300 0C241.875 0 195 47.8125 195 105C195 162.188 239.062 207.188 295.312 210ZM90 180C131.25 180 165 147.188 165 105C165 63.75 131.25 30 90 30C47.8125 30 15 63.75 15 105C15 147.188 47.8125 180 90 180ZM90 75C105.938 75 120 89.0625 120 105C120 121.875 105.938 135 90 135C73.125 135 60 121.875 60 105C60 89.0625 73.125 75 90 75ZM318.75 375H165V333.75C165 299.062 192.188 270.938 225.938 270C245.625 278.438 265.312 283.125 285 285C285 275.625 283.125 262.5 287.812 239.062C271.875 238.125 256.875 234.375 242.812 228.75C238.125 226.875 232.5 225 227.812 225C167.812 225 120 273.75 120 333.75V375C120 400.312 139.688 420 165 420H365.625C346.875 408.75 330.938 392.812 318.75 375ZM144.375 224.062C132.188 215.625 117.188 210 101.25 210H78.75C34.6875 210 0 245.625 0 288.75C0 301.875 9.375 311.25 22.5 311.25C34.6875 311.25 45 301.875 45 288.75C45 270.938 60 255 78.75 255H101.25C105 255 108.75 256.875 112.5 257.812C120.938 244.688 132.188 233.438 144.375 224.062ZM571.875 290.625C574.688 277.5 574.688 263.438 571.875 250.312L596.25 236.25C599.062 235.312 600 231.562 599.062 228.75C592.5 208.125 582.188 190.312 568.125 174.375C566.25 172.5 562.5 171.562 559.688 173.438L535.312 187.5C525 179.062 513.75 171.562 500.625 167.812V139.688C500.625 135.938 498.75 133.125 495.938 133.125C474.375 128.438 453.75 128.438 433.125 133.125C430.312 133.125 428.438 135.938 428.438 139.688V167.812C415.312 171.562 404.062 179.062 393.75 187.5L369.375 173.438C366.562 171.562 362.812 172.5 360.938 174.375C346.875 190.312 335.625 208.125 330 228.75C329.062 231.562 330 235.312 332.812 236.25L357.188 250.312C354.375 263.438 354.375 277.5 357.188 290.625L332.812 304.688C330 305.625 329.062 309.375 330 312.188C335.625 332.812 346.875 350.625 360.938 366.562C362.812 368.438 366.562 369.375 369.375 367.5L393.75 353.438C404.062 361.875 415.312 369.375 428.438 373.125V401.25C428.438 405 430.312 407.812 433.125 407.812C454.688 412.5 475.312 412.5 495.938 407.812C498.75 407.812 500.625 405 500.625 401.25V373.125C513.75 369.375 525 361.875 535.312 353.438L559.688 367.5C562.5 369.375 566.25 368.438 568.125 366.562C582.188 350.625 592.5 332.812 599.062 312.188C600 309.375 599.062 305.625 596.25 304.688L571.875 290.625ZM465 315.938C439.688 315.938 419.062 295.312 419.062 270C419.062 245.625 439.688 225 465 225C489.375 225 510 245.625 510 270C510 295.312 489.375 315.938 465 315.938Z" fill="#EEEEEE"/>
</svg>
